# xmcd CD database file
#
# Track frame offsets:
#	150
#	14592
#	32066
#	51390
#	64461
#	79443
#
# Disc length: 1233 seconds
#
# Revision: 0
# Processed by: cddbd v1.5.2PL0 Copyright (c) Steve Scherf et al.
# Submitted via: CDex 1.51
#
DISCID=5504cf06
DTITLE=Swing Bee - Woman
DYEAR=2002
DGENRE=Blues
TTITLE0=One Sweet Letter
TTITLE1=Night Train
TTITLE2=Twenty Four Hours A Day
TTITLE3=Tears Of Joy
TTITLE4=Woman
TTITLE5=Kidstuff
EXTD=YEAR: 2002
EXTT0=
EXTT1=
EXTT2=
EXTT3=
EXTT4=
EXTT5=
PLAYORDER=
